<svg width="256" height="256" viewBox="0 0 256 256" xmlns="http://www.w3.org/2000/svg">
  <defs>
    <linearGradient id="bg" x1="0" y1="0" x2="1" y2="1">
      <stop offset="0%" stop-color="#0a0c14"/>
      <stop offset="100%" stop-color="#1a1f3a"/>
    </linearGradient>
  </defs>
  <rect width="256" height="256" fill="url(#bg)" rx="56" ry="56"/>
  <!-- Two interlocking P's stylized -->
  <g transform="translate(128 128)">
    <!-- Left P (purple) -->
    <path d="M-70 -54 L-70 56 L-50 56 L-50 22 L-22 22 C-1 22 16 5 16 -16 C16 -37 -1 -54 -22 -54 L-70 -54 Z M-50 -34 L-22 -34 C-12 -34 -4 -26 -4 -16 C-4 -6 -12 2 -22 2 L-50 2 Z"
          fill="#6366f1"/>
    <!-- Right P (amber, overlapping) -->
    <path d="M14 -32 L14 78 L34 78 L34 44 L62 44 C83 44 100 27 100 6 C100 -15 83 -32 62 -32 L14 -32 Z M34 -12 L62 -12 C72 -12 80 -4 80 6 C80 16 72 24 62 24 L34 24 Z"
          fill="#fbbf24"
          opacity="0.92"/>
  </g>
</svg>
