<svg width="128" height="128" viewBox="0 0 128 128" xmlns="http://www.w3.org/2000/svg">
  <defs>
    <radialGradient id="glow" cx="50%" cy="50%" r="50%">
      <stop offset="0%" stop-color="#6366f1" stop-opacity="0.55"/>
      <stop offset="65%" stop-color="#6366f1" stop-opacity="0.12"/>
      <stop offset="100%" stop-color="#6366f1" stop-opacity="0"/>
    </radialGradient>
    <linearGradient id="bg" x1="0" y1="0" x2="1" y2="1">
      <stop offset="0%" stop-color="#0a0c14"/>
      <stop offset="100%" stop-color="#13182a"/>
    </linearGradient>
    <linearGradient id="mark" x1="0" y1="0" x2="0" y2="1">
      <stop offset="0%" stop-color="#7c84ff"/>
      <stop offset="100%" stop-color="#5050cf"/>
    </linearGradient>
  </defs>

  <!-- Rounded dark background, matches the extension's surface -->
  <rect width="128" height="128" fill="url(#bg)" rx="28" ry="28"/>

  <!-- Soft halo behind the mark for depth -->
  <circle cx="64" cy="64" r="58" fill="url(#glow)"/>

  <!-- Brand dot — same purple mark used in the popup header -->
  <circle cx="64" cy="64" r="32" fill="url(#mark)"/>

  <!-- Stylized 'P' inset (Polyparlay) -->
  <path d="M52 46 L52 88 L60 88 L60 76 L70 76 C77.7 76 84 69.7 84 62 C84 54.3 77.7 48 70 48 L52 48 Z M60 56 L70 56 C73.3 56 76 58.7 76 62 C76 65.3 73.3 68 70 68 L60 68 Z"
        fill="#ffffff"
        opacity="0.96"/>
</svg>
