<svg width="128" height="128" viewBox="0 0 128 128" xmlns="http://www.w3.org/2000/svg"
     font-family="Impact, 'Arial Black', sans-serif">
  <!-- STYLE D v2: Reference #4 (cyan BOOM) — halftone pulled tight to
       the absolute corners so it never visually crosses the text. -->

  <defs>
    <pattern id="hfD" x="0" y="0" width="7" height="7" patternUnits="userSpaceOnUse">
      <circle cx="3.5" cy="3.5" r="1.1" fill="#0a0c14" opacity="0.55"/>
    </pattern>
    <radialGradient id="hfDfade" cx="50%" cy="50%" r="50%">
      <stop offset="0%" stop-color="#000" stop-opacity="0"/>
      <stop offset="78%" stop-color="#000" stop-opacity="0"/>
      <stop offset="100%" stop-color="#000" stop-opacity="1"/>
    </radialGradient>
    <mask id="hfDmask">
      <rect width="128" height="128" fill="url(#hfDfade)"/>
    </mask>
  </defs>

  <rect width="128" height="128" fill="#ffffff" rx="22"/>
  <rect width="128" height="128" fill="url(#hfD)" mask="url(#hfDmask)"/>

  <!-- Cyan jagged burst -->
  <g transform="rotate(-6 64 64)">
    <path d="M 64 8
             L 76 30 L 100 12 L 92 38 L 118 28
             L 96 50 L 122 64 L 96 78 L 118 100
             L 92 90 L 100 116 L 76 98 L 64 120
             L 52 98 L 28 116 L 36 90 L 10 100
             L 32 78 L 6 64 L 32 50 L 10 28
             L 36 38 L 28 12 L 52 30 Z"
          fill="#67e8f9" stroke="#0a0c14" stroke-width="4.5"
          stroke-linejoin="miter" stroke-miterlimit="3"/>
  </g>

  <!-- POLY + PARLAY stacked, big white bold with thick black outline -->
  <g transform="skewX(-12)" font-weight="900" text-anchor="middle">
    <text x="74" y="58" font-size="26" stroke="#0a0c14" stroke-width="7"
          stroke-linejoin="round" fill="#0a0c14" letter-spacing="-1.2">POLY</text>
    <text x="74" y="58" font-size="26" fill="#ffffff" letter-spacing="-1.2">POLY</text>

    <text x="74" y="92" font-size="26" stroke="#0a0c14" stroke-width="7"
          stroke-linejoin="round" fill="#0a0c14" letter-spacing="-1.6">PARLAY</text>
    <text x="74" y="92" font-size="26" fill="#ffffff" letter-spacing="-1.6">PARLAY</text>
  </g>

  <!-- Star accents, kept in absolute corners away from text -->
  <g stroke="#0a0c14" stroke-width="1.5" stroke-linejoin="miter">
    <path d="M 12 14 L 15 20 L 21 21 L 15 22 L 12 28 L 9 22 L 3 21 L 9 20 Z" fill="#fde047"/>
    <path d="M 116 112 L 119 118 L 125 119 L 119 120 L 116 126 L 113 120 L 107 119 L 113 118 Z" fill="#fde047"/>
    <path d="M 116 14 L 118 19 L 123 20 L 118 21 L 116 26 L 114 21 L 109 20 L 114 19 Z" fill="#3b82f6"/>
    <path d="M 12 110 L 14 115 L 19 116 L 14 117 L 12 122 L 10 117 L 5 116 L 10 115 Z" fill="#3b82f6"/>
  </g>
</svg>
