<svg width="128" height="128" viewBox="0 0 128 128" xmlns="http://www.w3.org/2000/svg">
  <!-- CWS store icon — FULL SQUARE, no rounded corners (CWS applies its
       own rounding). Every pixel opaque so the PNG has no transparency. -->
  <defs>
    <linearGradient id="bg" x1="0" y1="0" x2="1" y2="1">
      <stop offset="0%" stop-color="#0a0c14"/>
      <stop offset="100%" stop-color="#1a1f3a"/>
    </linearGradient>
  </defs>
  <rect width="128" height="128" fill="url(#bg)"/>
  <g transform="translate(64 64)">
    <!-- Left P (purple) -->
    <path d="M-35 -27 L-35 28 L-25 28 L-25 11 L-11 11 C-0.5 11 8 2.5 8 -8 C8 -18.5 -0.5 -27 -11 -27 L-35 -27 Z M-25 -17 L-11 -17 C-6 -17 -2 -13 -2 -8 C-2 -3 -6 1 -11 1 L-25 1 Z"
          fill="#6366f1"/>
    <!-- Right P (amber, overlapping) -->
    <path d="M7 -16 L7 39 L17 39 L17 22 L31 22 C41.5 22 50 13.5 50 3 C50 -7.5 41.5 -16 31 -16 L7 -16 Z M17 -6 L31 -6 C36 -6 40 -2 40 3 C40 8 36 12 31 12 L17 12 Z"
          fill="#fbbf24"/>
  </g>
</svg>
